<svg width="49" height="55" viewBox="0 0 49 55" fill="none" xmlns="http://www.w3.org/2000/svg">
<g filter="url(#filter0_d_12_206)">
<path fill-rule="evenodd" clip-rule="evenodd" d="M33.2688 3.42219L10.2644 3.42219C8.46147 3.42219 7 4.88371 7 6.68659L7 41.3134C7 43.1163 8.46147 44.5778 10.2644 44.5778H38.6647C40.4676 44.5778 41.9291 43.1163 41.9291 41.3134V11.9405L33.2688 3.42219Z" fill="white"/>
<mask id="mask0_12_206" style="mask-type:luminance" maskUnits="userSpaceOnUse" x="7" y="3" width="35" height="42">
<path fill-rule="evenodd" clip-rule="evenodd" d="M33.2688 3.42219L10.2644 3.42219C8.46147 3.42219 7 4.88371 7 6.68659L7 41.3134C7 43.1163 8.46147 44.5778 10.2644 44.5778H38.6647C40.4676 44.5778 41.9291 43.1163 41.9291 41.3134V11.9405L33.2688 3.42219Z" fill="white"/>
</mask>
<g mask="url(#mask0_12_206)">
<path d="M33.2692 3.42236L36.9319 -0.301277L35.4075 -1.80068H33.2692V3.42236ZM41.9295 11.9406H47.1525V9.75187L45.5922 8.21695L41.9295 11.9406ZM10.2648 8.6454H33.2692V-1.80068L10.2648 -1.80068V8.6454ZM12.2234 6.68676C12.2234 7.76842 11.3465 8.6454 10.2648 8.6454V-1.80068C5.5773 -1.80068 1.77734 1.99928 1.77734 6.68676H12.2234ZM12.2234 41.3136L12.2234 6.68676H1.77734L1.77734 41.3136H12.2234ZM10.2648 39.3549C11.3465 39.3549 12.2234 40.2317 12.2234 41.3136H1.77734C1.77734 46.0011 5.5773 49.801 10.2648 49.801V39.3549ZM38.6651 39.3549H10.2648V49.801H38.6651V39.3549ZM36.7065 41.3136C36.7065 40.2317 37.5834 39.3549 38.6651 39.3549V49.801C43.3526 49.801 47.1525 46.0011 47.1525 41.3136H36.7065ZM36.7065 11.9406V41.3136H47.1525V11.9406H36.7065ZM45.5922 8.21695L36.9319 -0.301277L29.6067 7.14601L38.2668 15.6642L45.5922 8.21695Z" fill="white"/>
</g>
</g>
<path fill-rule="evenodd" clip-rule="evenodd" d="M42.0002 12.0076L33.2783 3.42881V11.0282C33.2783 11.5692 33.7167 12.0076 34.2576 12.0076H42.0002Z" fill="#B4B4B4"/>
<path d="M18.5359 23.9289C20.1293 23.9289 21.4209 22.6372 21.4209 21.0439C21.4209 19.4505 20.1293 18.1588 18.5359 18.1588C16.9425 18.1588 15.6509 19.4505 15.6509 21.0439C15.6509 22.6372 16.9425 23.9289 18.5359 23.9289Z" fill="#1B1B1B"/>
<path d="M30.5569 23.9298C32.1503 23.9298 33.4419 22.6381 33.4419 21.0448C33.4419 19.4514 32.1503 18.1597 30.5569 18.1597C28.9635 18.1597 27.6719 19.4514 27.6719 21.0448C27.6719 22.6381 28.9635 23.9298 30.5569 23.9298Z" fill="#1B1B1B"/>
<path d="M24.547 34.5275C27.9274 34.5275 30.6678 31.7871 30.6678 28.4067C30.6678 25.0263 27.9274 22.286 24.547 22.286C21.1666 22.286 18.4263 25.0263 18.4263 28.4067C18.4263 31.7871 21.1666 34.5275 24.547 34.5275Z" fill="#1B1B1B"/>
<path d="M35.3996 22.2849H14.9971V27.508H35.3996V22.2849Z" fill="white"/>
<defs>
<filter id="filter0_d_12_206" x="0.874999" y="0.797187" width="47.1792" height="53.4056" filterUnits="userSpaceOnUse" color-interpolation-filters="sRGB">
<feFlood flood-opacity="0" result="BackgroundImageFix"/>
<feColorMatrix in="SourceAlpha" type="matrix" values="0 0 0 0 0 0 0 0 0 0 0 0 0 0 0 0 0 0 127 0" result="hardAlpha"/>
<feOffset dy="3.5"/>
<feGaussianBlur stdDeviation="3.0625"/>
<feComposite in2="hardAlpha" operator="out"/>
<feColorMatrix type="matrix" values="0 0 0 0 0 0 0 0 0 0 0 0 0 0 0 0 0 0 0.16 0"/>
<feBlend mode="normal" in2="BackgroundImageFix" result="effect1_dropShadow_12_206"/>
<feBlend mode="normal" in="SourceGraphic" in2="effect1_dropShadow_12_206" result="shape"/>
</filter>
</defs>
</svg>
